# xmcd CD database file
#
# Track frame offsets:
#	150
#	16118
#	32584
#	45319
#	62095
#	79823
#	94927
#	106572
#	124651
#	142041
#	154451
#	176706
#
# Disc length: 2565 seconds
#
# Revision: 0
# Processed by: cddbd v1.5.2PL0 Copyright (c) Steve Scherf et al.
# Submitted via: Feurio! 1.68 - http://www.feurio.com
#
DISCID=930a030c
DTITLE=The Time Jumpers - The Time Jumpers
DYEAR=1900
DGENRE=Western Swing
TTITLE0=Texoma Bound
TTITLE1=Nothing But The Blues
TTITLE2=The Woman Of My Dreams
TTITLE3=So Far Apart
TTITLE4=Ridin' On The Rio
TTITLE5=New Star Over Texas
TTITLE6=Texas On A Saturday Night
TTITLE7=Faint Of Heart
TTITLE8=On The Outskirts Of Town
TTITLE9=Yodel Blues
TTITLE10=Three Sides To Every Story
TTITLE11=Someone Had To Teach You
EXTD=
EXTT0=
EXTT1=
EXTT2=
EXTT3=
EXTT4=
EXTT5=
EXTT6=
EXTT7=
EXTT8=
EXTT9=
EXTT10=
EXTT11=
PLAYORDER=
